<svg xmlns="http://www.w3.org/2000/svg" width="151.414" height="28.002" viewBox="0 0 151.414 28.002">
  <g id="Group_2" data-name="Group 2" transform="translate(-615.507 -1748.43)">
    <g id="C" transform="translate(615.507 1749.657)">
      <path id="Path_1" data-name="Path 1" d="M619.44,1793.313a13.244,13.244,0,0,0,9.454,3.933,13.667,13.667,0,0,0,5.232-1.047,15.4,15.4,0,0,0,2.166-1.155v-5.7a12.166,12.166,0,0,1-.9,1.01,9.186,9.186,0,1,1-12.991-12.991,9.187,9.187,0,0,1,12.3-.649v-4.944c-.18-.072-.4-.18-.577-.252a13.027,13.027,0,0,0-5.232-1.047,13.41,13.41,0,0,0-9.454,3.9,13.233,13.233,0,0,0-3.933,9.49,13.235,13.235,0,0,0,3.933,9.455Z" transform="translate(-615.507 -1770.471)" fill="#fff"/>
    </g>
    <g id="R" transform="translate(646.468 1749.657)">
      <path id="Path_2" data-name="Path 2" d="M1175.9,1788.189h3.067l6.748,9.057h4.727l-7.216-9.671a7.488,7.488,0,0,0,3.1-2.057,9.925,9.925,0,0,0,0-12.377,8.512,8.512,0,0,0-6.676-2.671h-7.938v26.775h4.186Zm0-13.929h3.752a4.913,4.913,0,0,1,3.861,1.407,6.226,6.226,0,0,1,0,7.325,4.925,4.925,0,0,1-3.861,1.444H1175.9Z" transform="translate(-1171.714 -1770.471)" fill="#fff"/>
    </g>
    <g id="O" transform="translate(672.45 1749.657)">
      <path id="Path_3" data-name="Path 3" d="M1642.406,1793.313a13.244,13.244,0,0,0,9.454,3.933,13.669,13.669,0,0,0,5.232-1.047,14.122,14.122,0,0,0,4.258-2.886,13.2,13.2,0,0,0,2.851-4.258,13.368,13.368,0,0,0,1.046-5.2,13.678,13.678,0,0,0-1.046-5.232,13.2,13.2,0,0,0-7.109-7.108,13.679,13.679,0,0,0-5.232-1.047,13.366,13.366,0,0,0-5.2,1.047,13.166,13.166,0,0,0-4.258,2.851,14.108,14.108,0,0,0-2.887,4.257,13.683,13.683,0,0,0-1.046,5.232,13.236,13.236,0,0,0,3.933,9.455Zm2.959-15.95a9.148,9.148,0,1,1-2.706,6.5A9.148,9.148,0,0,1,1645.365,1777.363Z" transform="translate(-1638.473 -1770.471)" fill="#fff"/>
    </g>
    <g id="M" transform="translate(709.365 1748.43)">
      <path id="Path_4" data-name="Path 4" d="M2305.847,1762.214l8.407,12.485,8.371-12.485v14.217h4.222v-28l-12.594,18.764-12.594-18.764v28h4.186Z" transform="translate(-2301.66 -1748.43)" fill="#fff"/>
    </g>
    <g id="A" transform="translate(743.647 1748.43)">
      <path id="Path_5" data-name="Path 5" d="M2924.418,1770.695h9.527l2.274,5.737h4.582l-11.619-28-11.655,28h4.619Zm4.763-11.908,3.248,8.155h-6.5Z" transform="translate(-2917.526 -1748.43)" fill="#fff"/>
    </g>
  </g>
</svg>